# xmcd CD database file
#
# Track frame offsets:
#	150
#	26585
#	48440
#	65882
#	83315
#	100010
#	116590
#	140562
#	162780
#	180037
#	197940
#	216125
#	236287
#	258450
#	276585
#	297792
#
# Disc length: 4231 seconds
#
# Revision: 0
# Processed by: cddbd v1.5PL3 Copyright (c) Steve Scherf et al.
# Submitted via: CDex 1.51
#
DISCID=e0108510
DTITLE=麻倉未稀 - 全曲集
DYEAR=1993
DGENRE=Japanese Pop
TTITLE0=NOMOCHROME
TTITLE1=ヒーロー(Holding out for a hero)
TTITLE2=黄昏ダンシング
TTITLE3=What a feeling(Flashdance)
TTITLE4=RUNAWAY
TTITLE5=Misty Twilight
TTITLE6=Marvelous Night
TTITLE7=CHANGING MY HEART FOR YOU
TTITLE8=Dance with Love
TTITLE9=ロマンスは熱いうちに〜The City of Romance
TTITLE10=セラヴィと言わないで
TTITLE11=それだけの旅
TTITLE12=愛はウィングス(Mighty Wings)
TTITLE13=千億の恋人
TTITLE14=Be My Life
TTITLE15=リメンバー･ターン
EXTD=YEAR: 1993
EXTT0=
EXTT1=
EXTT2=
EXTT3=
EXTT4=
EXTT5=
EXTT6=
EXTT7=
EXTT8=
EXTT9=
EXTT10=
EXTT11=
EXTT12=
EXTT13=
EXTT14=
EXTT15=
PLAYORDER=
